<svg width="601" height="655" viewBox="0 0 601 655" fill="none" xmlns="http://www.w3.org/2000/svg">
<path d="M332.167 216.339C350.126 212.227 368.89 218.324 381.002 232.206L442.883 303.131C454.444 316.381 458.194 334.729 452.76 351.453L421.92 446.371C416.486 463.095 402.667 475.735 385.526 479.659L293.774 500.665C275.816 504.777 257.052 498.68 244.94 484.798L183.058 413.873C171.498 400.623 167.747 382.274 173.181 365.551L204.021 270.633C209.455 253.909 223.275 241.269 240.416 237.345L332.167 216.339Z" fill="#07DA35"/>
<path d="M560.064 121.476C572.766 125.406 582.144 136.194 584.269 149.32L599.616 244.153C602.294 260.7 592.864 276.823 577.129 282.6L501.266 310.454C487.63 315.461 472.318 311.524 462.788 300.561L393.388 220.725C383.857 209.762 382.09 194.052 388.946 181.245L427.087 109.997C434.998 95.2191 452.276 88.1248 468.289 93.0795L560.064 121.476Z" fill="black"/>
<path d="M133.645 161.378C123.718 152.402 120.671 138.069 126.09 125.832L162.655 43.2495C166.682 34.1555 174.827 27.5456 184.556 25.4778L301.009 0.724887C310.737 -1.34292 320.867 1.38243 328.245 8.05243L395.238 68.6224C405.166 77.5979 408.212 91.9309 402.794 104.168L366.228 186.751C362.201 195.845 354.056 202.454 344.328 204.522L227.874 229.275C218.146 231.343 208.016 228.618 200.639 221.948L133.645 161.378Z" fill="#07DA35"/>
<path d="M75.5937 166.339C86.2123 156.506 102.696 156.793 112.965 166.992L177.025 230.611C183.872 237.411 186.57 247.349 184.1 256.678L154.61 368.07C151.43 380.082 140.462 388.373 128.038 388.156L52.8118 386.843C40.3877 386.626 29.7159 377.957 26.957 365.842L1.3722 253.489C-0.770565 244.079 2.27191 234.241 9.35261 227.684L75.5937 166.339Z" fill="black"/>
<path d="M51.8268 428.471C53.4568 420.504 60.2264 414.619 68.343 414.114L151.861 408.914C157.453 408.566 162.888 410.841 166.564 415.07L239.728 499.235C243.404 503.464 244.901 509.163 243.778 514.652L227.005 596.633C225.375 604.601 218.605 610.485 210.489 610.991L126.971 616.191C121.379 616.539 115.944 614.263 112.268 610.034L39.1041 525.869C35.4283 521.641 33.9312 515.941 35.0542 510.452L51.8268 428.471Z" fill="#07DA35"/>
<path d="M380.206 650.134C375.366 653.903 369.065 655.242 363.111 653.768L259.185 628.033C248.461 625.377 241.922 614.531 244.579 603.808L262.62 531.014C264.461 523.582 270.385 517.854 277.874 516.262L402.145 489.848C409.634 488.256 417.375 491.079 422.081 497.12L468.169 556.283C474.958 564.997 473.396 577.566 464.68 584.353L380.206 650.134Z" fill="black"/>
</svg>
